<svg width="239" height="29" viewBox="0 0 239 29" fill="none" xmlns="http://www.w3.org/2000/svg">
<path d="M14.2791 12.6C16.7725 12.8933 18.7671 13.7147 20.2631 15.064C21.7591 16.384 22.5071 18.0413 22.5071 20.036C22.5071 21.5613 22.0525 22.94 21.1431 24.172C20.2338 25.404 18.9871 26.3867 17.4031 27.12C15.8191 27.824 14.0445 28.176 12.0791 28.176C11.2578 28.176 10.3191 28.132 9.26312 28.044C8.85246 28.0147 8.33912 27.9853 7.72312 27.956C7.13645 27.9267 6.47645 27.912 5.74312 27.912L2.57512 27.956C2.01779 27.9853 1.24045 28 0.243121 28C0.184455 28 0.155121 27.912 0.155121 27.736C0.155121 27.56 0.184455 27.472 0.243121 27.472C1.09379 27.472 1.72445 27.3987 2.13512 27.252C2.57512 27.076 2.88312 26.7827 3.05912 26.372C3.23512 25.9613 3.32312 25.316 3.32312 24.436V4.064C3.32312 3.21333 3.23512 2.58267 3.05912 2.172C2.91245 1.732 2.61912 1.43866 2.17912 1.292C1.76845 1.116 1.13779 1.028 0.287121 1.028C0.228455 1.028 0.199121 0.939999 0.199121 0.763999C0.199121 0.588 0.228455 0.5 0.287121 0.5L2.61912 0.543999C3.90979 0.602665 4.95112 0.631998 5.74312 0.631998C6.56446 0.631998 7.41512 0.587999 8.29512 0.5C8.58846 0.470665 9.02846 0.441331 9.61512 0.411999C10.2018 0.382666 10.7151 0.367999 11.1551 0.367999C13.9125 0.367999 16.0391 0.851999 17.5351 1.82C19.0605 2.788 19.8231 4.196 19.8231 6.044C19.8231 7.452 19.3538 8.728 18.4151 9.872C17.4765 11.016 16.0978 11.9253 14.2791 12.6ZM10.4951 1.248C9.64446 1.248 9.05779 1.45333 8.73512 1.864C8.41246 2.27466 8.25112 3.03733 8.25112 4.152V12.512L10.0551 12.556C11.6391 12.556 12.8565 11.984 13.7071 10.84C14.5871 9.66667 15.0271 8.2 15.0271 6.44C15.0271 4.768 14.6311 3.492 13.8391 2.612C13.0765 1.70267 11.9618 1.248 10.4951 1.248ZM11.3311 27.208C13.4138 27.208 14.9391 26.6947 15.9071 25.668C16.8751 24.6413 17.3591 23.116 17.3591 21.092C17.3591 18.8333 16.8018 17.044 15.6871 15.724C14.5725 14.404 12.8565 13.744 10.5391 13.744C9.68846 13.744 8.92579 13.7733 8.25112 13.832V24.436C8.25112 25.4627 8.44179 26.1813 8.82312 26.592C9.20446 27.0027 10.0405 27.208 11.3311 27.208ZM57.2018 27.472C57.2898 27.472 57.3338 27.56 57.3338 27.736C57.3631 27.912 57.3191 28 57.2018 28H49.9858C49.2818 28 48.0498 26.8267 46.2898 24.48C44.5591 22.104 42.4618 18.54 39.9978 13.788C39.1765 13.9933 38.2671 14.096 37.2698 14.096C37.1231 14.096 36.9325 14.0667 36.6978 14.008V24.436C36.6685 25.2867 36.7271 25.932 36.8738 26.372C37.0498 26.7827 37.3431 27.076 37.7538 27.252C38.1938 27.3987 38.8538 27.472 39.7338 27.472C39.8511 27.472 39.9098 27.56 39.9098 27.736C39.9391 27.912 39.8951 28 39.7778 28C38.7805 28 38.0178 27.9853 37.4898 27.956L34.2338 27.912L30.9338 27.956C30.3471 27.9853 29.5551 28 28.5578 28C28.4405 28 28.3671 27.912 28.3378 27.736C28.3378 27.56 28.3965 27.472 28.5138 27.472C29.4818 27.472 30.2005 27.3987 30.6698 27.252C31.1391 27.076 31.4471 26.7827 31.5938 26.372C31.7698 25.932 31.8725 25.2867 31.9018 24.436V4.064C31.9018 3.184 31.8138 2.53867 31.6378 2.128C31.4911 1.71733 31.1978 1.43866 30.7578 1.292C30.3178 1.116 29.6431 1.028 28.7338 1.028C28.6165 1.028 28.5578 0.939999 28.5578 0.763999C28.5578 0.588 28.6165 0.5 28.7338 0.5L31.0658 0.543999C32.3565 0.602665 33.4125 0.631998 34.2338 0.631998C35.2311 0.631998 36.3165 0.573332 37.4898 0.455998C38.4285 0.397332 39.0445 0.367999 39.3378 0.367999C42.3005 0.367999 44.5151 0.851999 45.9818 1.82C47.4778 2.788 48.2258 4.13733 48.2258 5.868C48.2258 7.12933 47.8005 8.34667 46.9498 9.52C46.1285 10.6933 45.0285 11.676 43.6498 12.468C45.9378 16.252 47.8738 19.2293 49.4578 21.4C51.0711 23.5413 52.4791 25.096 53.6818 26.064C54.9138 27.0027 56.0871 27.472 57.2018 27.472ZM36.6978 12.776C37.0498 12.864 37.4751 12.908 37.9738 12.908C39.9098 12.908 41.2738 12.4827 42.0658 11.632C42.8871 10.7813 43.2978 9.35867 43.2978 7.364C43.2978 5.28133 42.8871 3.756 42.0658 2.788C41.2738 1.79066 40.2911 1.292 39.1178 1.292C38.3258 1.292 37.7831 1.35066 37.4898 1.468C37.1965 1.556 36.9911 1.79067 36.8738 2.172C36.7858 2.524 36.7271 3.184 36.6978 4.152V12.776ZM71.9263 28.528C69.1397 28.528 66.6757 27.8973 64.5343 26.636C62.393 25.3747 60.7357 23.6733 59.5623 21.532C58.4183 19.3613 57.8463 16.956 57.8463 14.316C57.8463 11.6173 58.477 9.18267 59.7383 7.012C61.029 4.84133 62.789 3.14 65.0183 1.908C67.277 0.646665 69.8143 0.0159984 72.6303 0.0159984C75.4757 0.0159984 77.9837 0.631998 80.1543 1.864C82.325 3.06667 83.997 4.73867 85.1703 6.88C86.373 8.992 86.9743 11.3533 86.9743 13.964C86.9743 16.868 86.285 19.4347 84.9063 21.664C83.557 23.864 81.7237 25.5653 79.4063 26.768C77.1183 27.9413 74.625 28.528 71.9263 28.528ZM73.7743 27.384C75.3877 27.384 76.7957 26.944 77.9983 26.064C79.2303 25.184 80.1837 23.9373 80.8583 22.324C81.533 20.6813 81.8703 18.76 81.8703 16.56C81.8703 13.8613 81.4157 11.324 80.5063 8.948C79.597 6.572 78.321 4.66533 76.6783 3.228C75.0357 1.79066 73.1583 1.072 71.0463 1.072C69.433 1.072 68.0103 1.512 66.7783 2.392C65.5463 3.272 64.593 4.53333 63.9183 6.176C63.2437 7.78933 62.9063 9.696 62.9063 11.896C62.9063 14.536 63.361 17.0587 64.2703 19.464C65.1797 21.84 66.4557 23.7613 68.0983 25.228C69.7703 26.6653 71.6623 27.384 73.7743 27.384ZM106.042 28.528C103.255 28.528 100.791 27.8973 98.6498 26.636C96.5085 25.3747 94.8511 23.6733 93.6778 21.532C92.5338 19.3613 91.9618 16.956 91.9618 14.316C91.9618 11.6173 92.5925 9.18267 93.8538 7.012C95.1445 4.84133 96.9045 3.14 99.1338 1.908C101.392 0.646665 103.93 0.0159984 106.746 0.0159984C109.591 0.0159984 112.099 0.631998 114.27 1.864C116.44 3.06667 118.112 4.73867 119.286 6.88C120.488 8.992 121.09 11.3533 121.09 13.964C121.09 16.868 120.4 19.4347 119.022 21.664C117.672 23.864 115.839 25.5653 113.522 26.768C111.234 27.9413 108.74 28.528 106.042 28.528ZM107.89 27.384C109.503 27.384 110.911 26.944 112.114 26.064C113.346 25.184 114.299 23.9373 114.974 22.324C115.648 20.6813 115.986 18.76 115.986 16.56C115.986 13.8613 115.531 11.324 114.622 8.948C113.712 6.572 112.436 4.66533 110.794 3.228C109.151 1.79066 107.274 1.072 105.162 1.072C103.548 1.072 102.126 1.512 100.894 2.392C99.6618 3.272 98.7085 4.53333 98.0338 6.176C97.3591 7.78933 97.0218 9.696 97.0218 11.896C97.0218 14.536 97.4765 17.0587 98.3858 19.464C99.2951 21.84 100.571 23.7613 102.214 25.228C103.886 26.6653 105.778 27.384 107.89 27.384ZM154.281 27.472C154.369 27.472 154.413 27.56 154.413 27.736C154.443 27.912 154.399 28 154.281 28H149.793C148.063 28 146.977 27.912 146.537 27.736C146.127 27.56 145.437 26.7093 144.469 25.184C143.531 23.6587 142.577 22.2507 141.609 20.96L135.933 13.26L134.217 14.976V24.436C134.217 25.4333 134.261 26.1227 134.349 26.504C134.437 26.856 134.672 27.1053 135.053 27.252C135.464 27.3987 136.168 27.472 137.165 27.472C137.224 27.472 137.253 27.56 137.253 27.736C137.253 27.912 137.224 28 137.165 28C136.197 28 135.464 27.9853 134.965 27.956L131.665 27.912L128.629 27.956C128.072 27.9853 127.324 28 126.385 28C126.327 28 126.297 27.912 126.297 27.736C126.297 27.56 126.327 27.472 126.385 27.472C127.295 27.472 127.955 27.3987 128.365 27.252C128.776 27.1053 129.055 26.8267 129.201 26.416C129.348 25.976 129.421 25.316 129.421 24.436V4.064C129.421 3.184 129.348 2.53867 129.201 2.128C129.055 1.71733 128.776 1.43866 128.365 1.292C127.955 1.116 127.339 1.028 126.517 1.028C126.429 1.028 126.385 0.939999 126.385 0.763999C126.385 0.588 126.429 0.5 126.517 0.5L128.629 0.543999C129.92 0.602665 130.961 0.631998 131.753 0.631998C132.545 0.631998 133.616 0.602665 134.965 0.543999L137.209 0.5C137.268 0.5 137.297 0.588 137.297 0.763999C137.297 0.939999 137.268 1.028 137.209 1.028C136.329 1.028 135.684 1.116 135.273 1.292C134.863 1.468 134.584 1.76133 134.437 2.172C134.32 2.58267 134.247 3.24267 134.217 4.152V13.612L142.665 4.944C143.428 4.18133 143.809 3.448 143.809 2.744C143.809 2.216 143.604 1.80533 143.193 1.512C142.783 1.18933 142.225 1.028 141.521 1.028C141.404 1.028 141.345 0.939999 141.345 0.763999C141.345 0.588 141.389 0.5 141.477 0.5L143.897 0.543999C145.54 0.602665 146.831 0.631998 147.769 0.631998C148.767 0.631998 149.793 0.602665 150.849 0.543999L152.521 0.5C152.609 0.5 152.653 0.588 152.653 0.763999C152.653 0.939999 152.609 1.028 152.521 1.028C151.231 1.028 149.808 1.40933 148.253 2.172C146.699 2.90533 145.261 3.91733 143.941 5.208L139.013 10.136L145.173 18.496C147.403 21.4587 148.972 23.512 149.881 24.656C150.82 25.7707 151.583 26.5187 152.169 26.9C152.785 27.2813 153.489 27.472 154.281 27.472ZM157.881 28C157.822 28 157.793 27.912 157.793 27.736C157.793 27.56 157.822 27.472 157.881 27.472C158.79 27.472 159.45 27.3987 159.861 27.252C160.271 27.1053 160.535 26.8267 160.653 26.416C160.799 26.0053 160.873 25.3453 160.873 24.436V4.064C160.873 3.184 160.799 2.53867 160.653 2.128C160.506 1.71733 160.227 1.43866 159.817 1.292C159.406 1.116 158.79 1.028 157.969 1.028C157.881 1.028 157.837 0.939999 157.837 0.763999C157.837 0.588 157.881 0.5 157.969 0.5L160.081 0.543999C161.371 0.602665 162.413 0.631998 163.205 0.631998C163.997 0.631998 165.067 0.602665 166.417 0.543999L168.661 0.5C168.719 0.5 168.749 0.588 168.749 0.763999C168.749 0.939999 168.719 1.028 168.661 1.028C167.751 1.028 167.091 1.116 166.681 1.292C166.299 1.43866 166.035 1.71733 165.889 2.128C165.771 2.53867 165.698 3.19867 165.669 4.108V24.26C165.669 25.404 165.83 26.1667 166.153 26.548C166.475 26.9 167.091 27.076 168.001 27.076H169.233C171.609 27.076 173.589 26.548 175.173 25.492C176.786 24.4067 178.077 22.7347 179.045 20.476C179.103 20.4173 179.177 20.388 179.265 20.388C179.353 20.388 179.441 20.4173 179.529 20.476C179.617 20.5053 179.661 20.5493 179.661 20.608C179.426 23.0133 179.309 25.2573 179.309 27.34C179.309 27.78 179.089 28 178.649 28H157.881ZM206.039 0.5C206.186 0.5 206.259 0.588 206.259 0.763999C206.259 0.939999 206.186 1.028 206.039 1.028C205.012 1.028 204.03 1.424 203.091 2.216C202.182 2.97867 201.272 4.18133 200.363 5.824L195.963 14.184V24.436C195.963 25.3453 196.036 26.0053 196.183 26.416C196.359 26.8267 196.682 27.1053 197.151 27.252C197.62 27.3987 198.383 27.472 199.439 27.472C199.556 27.472 199.615 27.56 199.615 27.736C199.615 27.912 199.556 28 199.439 28C198.412 28 197.62 27.9853 197.063 27.956L193.587 27.912L189.935 27.956C189.348 27.9853 188.556 28 187.559 28C187.442 28 187.383 27.912 187.383 27.736C187.383 27.56 187.442 27.472 187.559 27.472C188.615 27.472 189.392 27.3987 189.891 27.252C190.39 27.076 190.727 26.7827 190.903 26.372C191.108 25.9613 191.196 25.316 191.167 24.436L191.123 14.8L184.127 4.152C183.423 3.06666 182.748 2.27466 182.103 1.776C181.487 1.27733 180.856 1.028 180.211 1.028C180.094 1.028 180.035 0.939999 180.035 0.763999C180.006 0.588 180.035 0.5 180.123 0.5L182.411 0.543999C183.526 0.602665 184.347 0.631998 184.875 0.631998C185.608 0.631998 186.708 0.602665 188.175 0.543999L190.419 0.5C190.507 0.5 190.551 0.558666 190.551 0.675998C190.551 0.763998 190.522 0.851999 190.463 0.94C190.434 0.998665 190.39 1.028 190.331 1.028C189.568 1.028 189.011 1.08667 188.659 1.204C188.336 1.32133 188.175 1.512 188.175 1.776C188.175 2.04 188.322 2.37733 188.615 2.788L195.215 12.908L199.351 4.856C199.615 4.26933 199.747 3.74133 199.747 3.272C199.747 2.59733 199.512 2.05467 199.043 1.644C198.603 1.23333 197.958 1.028 197.107 1.028C196.99 1.028 196.931 0.939999 196.931 0.763999C196.931 0.588 196.975 0.5 197.063 0.5L199.439 0.543999C200.906 0.602665 202.035 0.631998 202.827 0.631998C203.326 0.631998 203.898 0.602665 204.543 0.543999L206.039 0.5ZM238.298 0.5C238.386 0.5 238.43 0.588 238.43 0.763999C238.43 0.939999 238.386 1.028 238.298 1.028C237.095 1.028 236.112 1.43867 235.35 2.26C234.616 3.08133 234.235 4.196 234.206 5.604L234.162 28.308C234.191 28.396 234.118 28.4693 233.942 28.528C233.795 28.616 233.619 28.66 233.414 28.66C233.12 28.66 232.93 28.572 232.842 28.396L214.406 5.252L214.362 22.896C214.332 24.304 214.684 25.4187 215.418 26.24C216.151 27.0613 217.134 27.472 218.366 27.472C218.483 27.472 218.542 27.56 218.542 27.736C218.542 27.912 218.483 28 218.366 28C217.544 28 216.914 27.9853 216.474 27.956L213.702 27.912L211.062 27.956C210.563 27.9853 209.859 28 208.95 28C208.832 28 208.774 27.912 208.774 27.736C208.774 27.56 208.832 27.472 208.95 27.472C210.182 27.472 211.15 27.0613 211.854 26.24C212.587 25.4187 212.968 24.304 212.998 22.896L213.042 3.58C212.191 2.64133 211.428 1.98133 210.754 1.6C210.108 1.21867 209.434 1.028 208.73 1.028C208.671 1.028 208.642 0.939999 208.642 0.763999C208.642 0.588 208.671 0.5 208.73 0.5L211.106 0.543999C211.575 0.573332 212.206 0.587999 212.998 0.587999C213.79 0.587999 214.45 0.573332 214.978 0.543999C215.535 0.514666 215.902 0.5 216.078 0.5C216.312 0.5 216.488 0.558666 216.606 0.675998C216.752 0.793331 216.914 1.01333 217.09 1.336C217.442 1.864 217.794 2.348 218.146 2.788L232.798 21.092L232.886 5.604C232.915 4.196 232.563 3.08133 231.83 2.26C231.126 1.43867 230.143 1.028 228.882 1.028C228.764 1.028 228.706 0.939999 228.706 0.763999C228.706 0.588 228.764 0.5 228.882 0.5L230.598 0.543999C231.771 0.602665 232.754 0.631998 233.546 0.631998C234.162 0.631998 235.027 0.602665 236.142 0.543999L238.298 0.5Z" fill="white"/>
</svg>
