<svg aria-hidden="true" style="position: absolute; width: 0; height: 0; overflow: hidden;" version="1.1" xmlns="http://www.w3.org/2000/svg" xmlns:xlink="http://www.w3.org/1999/xlink">
<defs>
<symbol id="icon-arrow-up" viewBox="0 0 1 32">
<path stroke-linejoin="miter" stroke-linecap="butt" stroke-miterlimit="4" stroke-width="0.5246" d="M0.525 32v-32"></path>
</symbol>
<symbol id="icon-bar-vector1" viewBox="0 0 7 32">
<path stroke-linejoin="miter" stroke-linecap="butt" stroke-miterlimit="4" stroke-width="0.5246" d="M0.525 32v-32"></path>
</symbol>
<symbol id="icon-bar-vector2" viewBox="0 0 13 32">
<path stroke-linejoin="miter" stroke-linecap="butt" stroke-miterlimit="4" stroke-width="0.5246" d="M0.525 32v-32"></path>
</symbol>
<symbol id="icon-big-stick" viewBox="0 0 0 32">
<path stroke-linejoin="miter" stroke-linecap="butt" stroke-miterlimit="4" stroke-width="0.1148" d="M0.077 32v-32"></path>
</symbol>
<symbol id="icon-contack-us-vector1" viewBox="0 0 8 32">
<path stroke-linejoin="miter" stroke-linecap="butt" stroke-miterlimit="4" stroke-width="0.1148" d="M0.077 32v-32"></path>
</symbol>
<symbol id="icon-contack-us-vector2" viewBox="0 0 27 32">
<path stroke-linejoin="miter" stroke-linecap="butt" stroke-miterlimit="4" stroke-width="0.1148" d="M0.077 32v-32"></path>
</symbol>
<symbol id="icon-hero-background-vector1" viewBox="0 0 10 32">
<path stroke-linejoin="miter" stroke-linecap="butt" stroke-miterlimit="4" stroke-width="0.1148" d="M0.077 32v-32"></path>
</symbol>
<symbol id="icon-hero-background-vector2" viewBox="0 0 3 32">
<path stroke-linejoin="miter" stroke-linecap="butt" stroke-miterlimit="4" stroke-width="0.1148" d="M0.077 32v-32"></path>
</symbol>
<symbol id="icon-icon-instagram" viewBox="0 0 32 32">
<path fill="#fff" style="fill: var(--color1, #fff)" d="M23.12 7.28c-0.316 0-0.626 0.094-0.889 0.27s-0.468 0.426-0.589 0.718c-0.121 0.292-0.153 0.614-0.091 0.924s0.214 0.595 0.438 0.819c0.224 0.224 0.509 0.376 0.819 0.438s0.632 0.030 0.924-0.091c0.292-0.121 0.542-0.326 0.718-0.589s0.27-0.572 0.27-0.889c0-0.424-0.169-0.831-0.469-1.131s-0.707-0.469-1.131-0.469zM29.253 10.507c-0.026-1.106-0.233-2.201-0.613-3.24-0.339-0.889-0.867-1.694-1.547-2.36-0.66-0.683-1.467-1.208-2.36-1.533-1.037-0.392-2.132-0.604-3.24-0.627-1.413-0.080-1.867-0.080-5.493-0.080s-4.080 0-5.493 0.080c-1.108 0.023-2.204 0.235-3.24 0.627-0.891 0.329-1.697 0.853-2.36 1.533-0.683 0.66-1.208 1.467-1.533 2.36-0.392 1.036-0.604 2.132-0.627 3.24-0.080 1.413-0.080 1.867-0.080 5.493s0 4.080 0.080 5.493c0.023 1.108 0.235 2.204 0.627 3.24 0.326 0.893 0.85 1.7 1.533 2.36 0.663 0.681 1.469 1.204 2.36 1.533 1.037 0.392 2.132 0.604 3.24 0.627 1.413 0.080 1.867 0.080 5.493 0.080s4.080 0 5.493-0.080c1.108-0.023 2.203-0.235 3.24-0.627 0.893-0.326 1.7-0.85 2.36-1.533 0.683-0.663 1.211-1.469 1.547-2.36 0.38-1.039 0.587-2.134 0.613-3.24 0-1.413 0.080-1.867 0.080-5.493s0-4.080-0.080-5.493zM26.853 21.333c-0.010 0.846-0.163 1.685-0.453 2.48-0.213 0.58-0.555 1.105-1 1.533-0.433 0.441-0.956 0.782-1.533 1-0.795 0.29-1.634 0.444-2.48 0.453-1.333 0.067-1.827 0.080-5.333 0.080s-4 0-5.333-0.080c-0.879 0.016-1.754-0.119-2.587-0.4-0.552-0.229-1.051-0.57-1.467-1-0.443-0.428-0.78-0.953-0.987-1.533-0.326-0.806-0.506-1.664-0.533-2.533 0-1.333-0.080-1.827-0.080-5.333s0-4 0.080-5.333c0.006-0.865 0.164-1.723 0.467-2.533 0.235-0.563 0.595-1.064 1.053-1.467 0.405-0.458 0.906-0.823 1.467-1.067 0.813-0.293 1.669-0.447 2.533-0.453 1.333 0 1.827-0.080 5.333-0.080s4 0 5.333 0.080c0.846 0.010 1.685 0.163 2.48 0.453 0.606 0.225 1.15 0.59 1.587 1.067 0.437 0.41 0.778 0.91 1 1.467 0.296 0.812 0.45 1.669 0.453 2.533 0.067 1.333 0.080 1.827 0.080 5.333s-0.013 4-0.080 5.333zM16 9.16c-1.352 0.003-2.673 0.406-3.796 1.159s-1.998 1.822-2.513 3.072c-0.516 1.25-0.649 2.625-0.384 3.951s0.918 2.543 1.875 3.499 2.176 1.605 3.502 1.868c1.326 0.263 2.701 0.127 3.95-0.391s2.317-1.395 3.067-2.519c0.751-1.125 1.152-2.446 1.152-3.799 0.002-0.9-0.174-1.791-0.518-2.623s-0.849-1.587-1.486-2.223-1.393-1.139-2.225-1.481c-0.832-0.342-1.724-0.517-2.624-0.513zM16 20.44c-0.878 0-1.737-0.26-2.467-0.748s-1.299-1.181-1.635-1.993c-0.336-0.811-0.424-1.704-0.253-2.565s0.594-1.652 1.215-2.273c0.621-0.621 1.412-1.044 2.273-1.215s1.754-0.083 2.565 0.253c0.811 0.336 1.505 0.905 1.993 1.635s0.748 1.589 0.748 2.467c0 0.583-0.115 1.16-0.338 1.699s-0.55 1.028-0.962 1.44c-0.412 0.412-0.902 0.739-1.441 0.962s-1.116 0.338-1.699 0.338z"></path>
</symbol>
<symbol id="icon-menu1-vector1" viewBox="0 0 10 32">
<path fill="#fff" style="fill: var(--color1, #fff)" d="M23.12 7.28c-0.316 0-0.626 0.094-0.889 0.27s-0.468 0.426-0.589 0.718c-0.121 0.292-0.153 0.614-0.091 0.924s0.214 0.595 0.438 0.819c0.224 0.224 0.509 0.376 0.819 0.438s0.632 0.030 0.924-0.091c0.292-0.121 0.542-0.326 0.718-0.589s0.27-0.572 0.27-0.889c0-0.424-0.169-0.831-0.469-1.131s-0.707-0.469-1.131-0.469zM29.253 10.507c-0.026-1.106-0.233-2.201-0.613-3.24-0.339-0.889-0.867-1.694-1.547-2.36-0.66-0.683-1.467-1.208-2.36-1.533-1.037-0.392-2.132-0.604-3.24-0.627-1.413-0.080-1.867-0.080-5.493-0.080s-4.080 0-5.493 0.080c-1.108 0.023-2.204 0.235-3.24 0.627-0.891 0.329-1.697 0.853-2.36 1.533-0.683 0.66-1.208 1.467-1.533 2.36-0.392 1.036-0.604 2.132-0.627 3.24-0.080 1.413-0.080 1.867-0.080 5.493s0 4.080 0.080 5.493c0.023 1.108 0.235 2.204 0.627 3.24 0.326 0.893 0.85 1.7 1.533 2.36 0.663 0.681 1.469 1.204 2.36 1.533 1.037 0.392 2.132 0.604 3.24 0.627 1.413 0.080 1.867 0.080 5.493 0.080s4.080 0 5.493-0.080c1.108-0.023 2.203-0.235 3.24-0.627 0.893-0.326 1.7-0.85 2.36-1.533 0.683-0.663 1.211-1.469 1.547-2.36 0.38-1.039 0.587-2.134 0.613-3.24 0-1.413 0.080-1.867 0.080-5.493s0-4.080-0.080-5.493zM26.853 21.333c-0.010 0.846-0.163 1.685-0.453 2.48-0.213 0.58-0.555 1.105-1 1.533-0.433 0.441-0.956 0.782-1.533 1-0.795 0.29-1.634 0.444-2.48 0.453-1.333 0.067-1.827 0.080-5.333 0.080s-4 0-5.333-0.080c-0.879 0.016-1.754-0.119-2.587-0.4-0.552-0.229-1.051-0.57-1.467-1-0.443-0.428-0.78-0.953-0.987-1.533-0.326-0.806-0.506-1.664-0.533-2.533 0-1.333-0.080-1.827-0.080-5.333s0-4 0.080-5.333c0.006-0.865 0.164-1.723 0.467-2.533 0.235-0.563 0.595-1.064 1.053-1.467 0.405-0.458 0.906-0.823 1.467-1.067 0.813-0.293 1.669-0.447 2.533-0.453 1.333 0 1.827-0.080 5.333-0.080s4 0 5.333 0.080c0.846 0.010 1.685 0.163 2.48 0.453 0.606 0.225 1.15 0.59 1.587 1.067 0.437 0.41 0.778 0.91 1 1.467 0.296 0.812 0.45 1.669 0.453 2.533 0.067 1.333 0.080 1.827 0.080 5.333s-0.013 4-0.080 5.333zM16 9.16c-1.352 0.003-2.673 0.406-3.796 1.159s-1.998 1.822-2.513 3.072c-0.516 1.25-0.649 2.625-0.384 3.951s0.918 2.543 1.875 3.499 2.176 1.605 3.502 1.868c1.326 0.263 2.701 0.127 3.95-0.391s2.317-1.395 3.067-2.519c0.751-1.125 1.152-2.446 1.152-3.799 0.002-0.9-0.174-1.791-0.518-2.623s-0.849-1.587-1.486-2.223-1.393-1.139-2.225-1.481c-0.832-0.342-1.724-0.517-2.624-0.513zM16 20.44c-0.878 0-1.737-0.26-2.467-0.748s-1.299-1.181-1.635-1.993c-0.336-0.811-0.424-1.704-0.253-2.565s0.594-1.652 1.215-2.273c0.621-0.621 1.412-1.044 2.273-1.215s1.754-0.083 2.565 0.253c0.811 0.336 1.505 0.905 1.993 1.635s0.748 1.589 0.748 2.467c0 0.583-0.115 1.16-0.338 1.699s-0.55 1.028-0.962 1.44c-0.412 0.412-0.902 0.739-1.441 0.962s-1.116 0.338-1.699 0.338z"></path>
</symbol>
<symbol id="icon-menu1-vector2" viewBox="0 0 8 32">
<path fill="#fff" style="fill: var(--color1, #fff)" d="M23.12 7.28c-0.316 0-0.626 0.094-0.889 0.27s-0.468 0.426-0.589 0.718c-0.121 0.292-0.153 0.614-0.091 0.924s0.214 0.595 0.438 0.819c0.224 0.224 0.509 0.376 0.819 0.438s0.632 0.030 0.924-0.091c0.292-0.121 0.542-0.326 0.718-0.589s0.27-0.572 0.27-0.889c0-0.424-0.169-0.831-0.469-1.131s-0.707-0.469-1.131-0.469zM29.253 10.507c-0.026-1.106-0.233-2.201-0.613-3.24-0.339-0.889-0.867-1.694-1.547-2.36-0.66-0.683-1.467-1.208-2.36-1.533-1.037-0.392-2.132-0.604-3.24-0.627-1.413-0.080-1.867-0.080-5.493-0.080s-4.080 0-5.493 0.080c-1.108 0.023-2.204 0.235-3.24 0.627-0.891 0.329-1.697 0.853-2.36 1.533-0.683 0.66-1.208 1.467-1.533 2.36-0.392 1.036-0.604 2.132-0.627 3.24-0.080 1.413-0.080 1.867-0.080 5.493s0 4.080 0.080 5.493c0.023 1.108 0.235 2.204 0.627 3.24 0.326 0.893 0.85 1.7 1.533 2.36 0.663 0.681 1.469 1.204 2.36 1.533 1.037 0.392 2.132 0.604 3.24 0.627 1.413 0.080 1.867 0.080 5.493 0.080s4.080 0 5.493-0.080c1.108-0.023 2.203-0.235 3.24-0.627 0.893-0.326 1.7-0.85 2.36-1.533 0.683-0.663 1.211-1.469 1.547-2.36 0.38-1.039 0.587-2.134 0.613-3.24 0-1.413 0.080-1.867 0.080-5.493s0-4.080-0.080-5.493zM26.853 21.333c-0.010 0.846-0.163 1.685-0.453 2.48-0.213 0.58-0.555 1.105-1 1.533-0.433 0.441-0.956 0.782-1.533 1-0.795 0.29-1.634 0.444-2.48 0.453-1.333 0.067-1.827 0.080-5.333 0.080s-4 0-5.333-0.080c-0.879 0.016-1.754-0.119-2.587-0.4-0.552-0.229-1.051-0.57-1.467-1-0.443-0.428-0.78-0.953-0.987-1.533-0.326-0.806-0.506-1.664-0.533-2.533 0-1.333-0.080-1.827-0.080-5.333s0-4 0.080-5.333c0.006-0.865 0.164-1.723 0.467-2.533 0.235-0.563 0.595-1.064 1.053-1.467 0.405-0.458 0.906-0.823 1.467-1.067 0.813-0.293 1.669-0.447 2.533-0.453 1.333 0 1.827-0.080 5.333-0.080s4 0 5.333 0.080c0.846 0.010 1.685 0.163 2.48 0.453 0.606 0.225 1.15 0.59 1.587 1.067 0.437 0.41 0.778 0.91 1 1.467 0.296 0.812 0.45 1.669 0.453 2.533 0.067 1.333 0.080 1.827 0.080 5.333s-0.013 4-0.080 5.333zM16 9.16c-1.352 0.003-2.673 0.406-3.796 1.159s-1.998 1.822-2.513 3.072c-0.516 1.25-0.649 2.625-0.384 3.951s0.918 2.543 1.875 3.499 2.176 1.605 3.502 1.868c1.326 0.263 2.701 0.127 3.95-0.391s2.317-1.395 3.067-2.519c0.751-1.125 1.152-2.446 1.152-3.799 0.002-0.9-0.174-1.791-0.518-2.623s-0.849-1.587-1.486-2.223-1.393-1.139-2.225-1.481c-0.832-0.342-1.724-0.517-2.624-0.513zM16 20.44c-0.878 0-1.737-0.26-2.467-0.748s-1.299-1.181-1.635-1.993c-0.336-0.811-0.424-1.704-0.253-2.565s0.594-1.652 1.215-2.273c0.621-0.621 1.412-1.044 2.273-1.215s1.754-0.083 2.565 0.253c0.811 0.336 1.505 0.905 1.993 1.635s0.748 1.589 0.748 2.467c0 0.583-0.115 1.16-0.338 1.699s-0.55 1.028-0.962 1.44c-0.412 0.412-0.902 0.739-1.441 0.962s-1.116 0.338-1.699 0.338z"></path>
</symbol>
<symbol id="icon-menu2-vector1" viewBox="0 0 8 32">
<path fill="#fff" style="fill: var(--color1, #fff)" d="M23.12 7.28c-0.316 0-0.626 0.094-0.889 0.27s-0.468 0.426-0.589 0.718c-0.121 0.292-0.153 0.614-0.091 0.924s0.214 0.595 0.438 0.819c0.224 0.224 0.509 0.376 0.819 0.438s0.632 0.030 0.924-0.091c0.292-0.121 0.542-0.326 0.718-0.589s0.27-0.572 0.27-0.889c0-0.424-0.169-0.831-0.469-1.131s-0.707-0.469-1.131-0.469zM29.253 10.507c-0.026-1.106-0.233-2.201-0.613-3.24-0.339-0.889-0.867-1.694-1.547-2.36-0.66-0.683-1.467-1.208-2.36-1.533-1.037-0.392-2.132-0.604-3.24-0.627-1.413-0.080-1.867-0.080-5.493-0.080s-4.080 0-5.493 0.080c-1.108 0.023-2.204 0.235-3.24 0.627-0.891 0.329-1.697 0.853-2.36 1.533-0.683 0.66-1.208 1.467-1.533 2.36-0.392 1.036-0.604 2.132-0.627 3.24-0.080 1.413-0.080 1.867-0.080 5.493s0 4.080 0.080 5.493c0.023 1.108 0.235 2.204 0.627 3.24 0.326 0.893 0.85 1.7 1.533 2.36 0.663 0.681 1.469 1.204 2.36 1.533 1.037 0.392 2.132 0.604 3.24 0.627 1.413 0.080 1.867 0.080 5.493 0.080s4.080 0 5.493-0.080c1.108-0.023 2.203-0.235 3.24-0.627 0.893-0.326 1.7-0.85 2.36-1.533 0.683-0.663 1.211-1.469 1.547-2.36 0.38-1.039 0.587-2.134 0.613-3.24 0-1.413 0.080-1.867 0.080-5.493s0-4.080-0.080-5.493zM26.853 21.333c-0.010 0.846-0.163 1.685-0.453 2.48-0.213 0.58-0.555 1.105-1 1.533-0.433 0.441-0.956 0.782-1.533 1-0.795 0.29-1.634 0.444-2.48 0.453-1.333 0.067-1.827 0.080-5.333 0.080s-4 0-5.333-0.080c-0.879 0.016-1.754-0.119-2.587-0.4-0.552-0.229-1.051-0.57-1.467-1-0.443-0.428-0.78-0.953-0.987-1.533-0.326-0.806-0.506-1.664-0.533-2.533 0-1.333-0.080-1.827-0.080-5.333s0-4 0.080-5.333c0.006-0.865 0.164-1.723 0.467-2.533 0.235-0.563 0.595-1.064 1.053-1.467 0.405-0.458 0.906-0.823 1.467-1.067 0.813-0.293 1.669-0.447 2.533-0.453 1.333 0 1.827-0.080 5.333-0.080s4 0 5.333 0.080c0.846 0.010 1.685 0.163 2.48 0.453 0.606 0.225 1.15 0.59 1.587 1.067 0.437 0.41 0.778 0.91 1 1.467 0.296 0.812 0.45 1.669 0.453 2.533 0.067 1.333 0.080 1.827 0.080 5.333s-0.013 4-0.080 5.333zM16 9.16c-1.352 0.003-2.673 0.406-3.796 1.159s-1.998 1.822-2.513 3.072c-0.516 1.25-0.649 2.625-0.384 3.951s0.918 2.543 1.875 3.499 2.176 1.605 3.502 1.868c1.326 0.263 2.701 0.127 3.95-0.391s2.317-1.395 3.067-2.519c0.751-1.125 1.152-2.446 1.152-3.799 0.002-0.9-0.174-1.791-0.518-2.623s-0.849-1.587-1.486-2.223-1.393-1.139-2.225-1.481c-0.832-0.342-1.724-0.517-2.624-0.513zM16 20.44c-0.878 0-1.737-0.26-2.467-0.748s-1.299-1.181-1.635-1.993c-0.336-0.811-0.424-1.704-0.253-2.565s0.594-1.652 1.215-2.273c0.621-0.621 1.412-1.044 2.273-1.215s1.754-0.083 2.565 0.253c0.811 0.336 1.505 0.905 1.993 1.635s0.748 1.589 0.748 2.467c0 0.583-0.115 1.16-0.338 1.699s-0.55 1.028-0.962 1.44c-0.412 0.412-0.902 0.739-1.441 0.962s-1.116 0.338-1.699 0.338z"></path>
</symbol>
<symbol id="icon-menu2-vector2" viewBox="0 0 8 32">
<path fill="#fff" style="fill: var(--color1, #fff)" d="M23.12 7.28c-0.316 0-0.626 0.094-0.889 0.27s-0.468 0.426-0.589 0.718c-0.121 0.292-0.153 0.614-0.091 0.924s0.214 0.595 0.438 0.819c0.224 0.224 0.509 0.376 0.819 0.438s0.632 0.030 0.924-0.091c0.292-0.121 0.542-0.326 0.718-0.589s0.27-0.572 0.27-0.889c0-0.424-0.169-0.831-0.469-1.131s-0.707-0.469-1.131-0.469zM29.253 10.507c-0.026-1.106-0.233-2.201-0.613-3.24-0.339-0.889-0.867-1.694-1.547-2.36-0.66-0.683-1.467-1.208-2.36-1.533-1.037-0.392-2.132-0.604-3.24-0.627-1.413-0.080-1.867-0.080-5.493-0.080s-4.080 0-5.493 0.080c-1.108 0.023-2.204 0.235-3.24 0.627-0.891 0.329-1.697 0.853-2.36 1.533-0.683 0.66-1.208 1.467-1.533 2.36-0.392 1.036-0.604 2.132-0.627 3.24-0.080 1.413-0.080 1.867-0.080 5.493s0 4.080 0.080 5.493c0.023 1.108 0.235 2.204 0.627 3.24 0.326 0.893 0.85 1.7 1.533 2.36 0.663 0.681 1.469 1.204 2.36 1.533 1.037 0.392 2.132 0.604 3.24 0.627 1.413 0.080 1.867 0.080 5.493 0.080s4.080 0 5.493-0.080c1.108-0.023 2.203-0.235 3.24-0.627 0.893-0.326 1.7-0.85 2.36-1.533 0.683-0.663 1.211-1.469 1.547-2.36 0.38-1.039 0.587-2.134 0.613-3.24 0-1.413 0.080-1.867 0.080-5.493s0-4.080-0.080-5.493zM26.853 21.333c-0.010 0.846-0.163 1.685-0.453 2.48-0.213 0.58-0.555 1.105-1 1.533-0.433 0.441-0.956 0.782-1.533 1-0.795 0.29-1.634 0.444-2.48 0.453-1.333 0.067-1.827 0.080-5.333 0.080s-4 0-5.333-0.080c-0.879 0.016-1.754-0.119-2.587-0.4-0.552-0.229-1.051-0.57-1.467-1-0.443-0.428-0.78-0.953-0.987-1.533-0.326-0.806-0.506-1.664-0.533-2.533 0-1.333-0.080-1.827-0.080-5.333s0-4 0.080-5.333c0.006-0.865 0.164-1.723 0.467-2.533 0.235-0.563 0.595-1.064 1.053-1.467 0.405-0.458 0.906-0.823 1.467-1.067 0.813-0.293 1.669-0.447 2.533-0.453 1.333 0 1.827-0.080 5.333-0.080s4 0 5.333 0.080c0.846 0.010 1.685 0.163 2.48 0.453 0.606 0.225 1.15 0.59 1.587 1.067 0.437 0.41 0.778 0.91 1 1.467 0.296 0.812 0.45 1.669 0.453 2.533 0.067 1.333 0.080 1.827 0.080 5.333s-0.013 4-0.080 5.333zM16 9.16c-1.352 0.003-2.673 0.406-3.796 1.159s-1.998 1.822-2.513 3.072c-0.516 1.25-0.649 2.625-0.384 3.951s0.918 2.543 1.875 3.499 2.176 1.605 3.502 1.868c1.326 0.263 2.701 0.127 3.95-0.391s2.317-1.395 3.067-2.519c0.751-1.125 1.152-2.446 1.152-3.799 0.002-0.9-0.174-1.791-0.518-2.623s-0.849-1.587-1.486-2.223-1.393-1.139-2.225-1.481c-0.832-0.342-1.724-0.517-2.624-0.513zM16 20.44c-0.878 0-1.737-0.26-2.467-0.748s-1.299-1.181-1.635-1.993c-0.336-0.811-0.424-1.704-0.253-2.565s0.594-1.652 1.215-2.273c0.621-0.621 1.412-1.044 2.273-1.215s1.754-0.083 2.565 0.253c0.811 0.336 1.505 0.905 1.993 1.635s0.748 1.589 0.748 2.467c0 0.583-0.115 1.16-0.338 1.699s-0.55 1.028-0.962 1.44c-0.412 0.412-0.902 0.739-1.441 0.962s-1.116 0.338-1.699 0.338z"></path>
</symbol>
<symbol id="icon-menu-stick" viewBox="0 0 5728 32">
<path fill="#fafafa" style="fill: var(--color2, #fafafa)" d="M0 8h5728v16h-5728v-16z"></path>
</symbol>
<symbol id="icon-menu-widget-stick" viewBox="0 0 1 32">
<path stroke-linejoin="miter" stroke-linecap="butt" stroke-miterlimit="4" stroke-width="0.5614" d="M0.561 0v32"></path>
</symbol>
<symbol id="icon-spoon" viewBox="0 0 142 32">
<path fill="#dcca87" style="fill: var(--color3, #dcca87)" d="M23.105 0c-12.741 0-23.105 7.178-23.105 16s10.365 16 23.105 16c12.051 0 21.972-6.423 23.010-14.584h16.63v3.366h79.477v-9.562h-79.477v3.365h-16.63c-1.039-8.162-10.959-14.585-23.010-14.585zM65.814 14.050h73.339v3.9h-73.339v-3.9zM43.142 16c0 7.261-8.989 13.168-20.037 13.168s-20.037-5.907-20.037-13.168c0-7.261 8.989-13.169 20.037-13.169s20.037 5.907 20.037 13.169z"></path>
</symbol>
<symbol id="icon-two-crossed-spoons" viewBox="0 0 32 32">
<path fill="#fff" style="fill: var(--color1, #fff)" d="M21.431 13.918c0.992-1.002 1.24-2.38 0.553-3.074s-2.053-0.443-3.045 0.559c-0.938 0.947-1.211 2.232-0.656 2.955l-1.295 1.307-0.262-0.265-6.188 6.248 0.744 0.752 6.188-6.248-0.262-0.265 1.295-1.307c0.716 0.56 1.989 0.285 2.927-0.662zM17.012 16.171l-5.71 5.765-0.304-0.307 5.71-5.765 0.304 0.307zM18.625 14.236c-0.565-0.571-0.325-1.742 0.535-2.61s2.020-1.111 2.585-0.54c0.565 0.571 0.326 1.742-0.535 2.61s-2.020 1.111-2.585 0.54z"></path>
<path fill="#fff" style="fill: var(--color1, #fff)" d="M13.167 11.402c-0.991-1.003-2.354-1.254-3.040-0.559s-0.438 2.075 0.552 3.078c0.937 0.949 2.208 1.224 2.923 0.663l1.293 1.309-0.262 0.265 6.179 6.256 0.743-0.753-6.179-6.256-0.262 0.265-1.293-1.309c0.554-0.724 0.282-2.011-0.655-2.959zM15.395 15.87l5.702 5.773-0.303 0.307-5.702-5.773 0.303-0.307zM13.481 14.239c-0.565 0.572-1.723 0.329-2.582-0.541s-1.099-2.042-0.534-2.614c0.565-0.572 1.723-0.329 2.582 0.541s1.099 2.042 0.534 2.614z"></path>
<path fill="#dcca87" style="fill: var(--color3, #dcca87)" d="M15.803 2.657c-0.078 0-0.167-0.004-0.265-0.013-0.039-0.003-0.087-0.006-0.143-0.008s-0.119-0.004-0.189-0.004l-0.311 0.004c-0.050 0.003-0.122 0.004-0.214 0.004-0.006 0-0.008-0.008-0.008-0.025s0.003-0.025 0.008-0.025c0.087 0 0.15-0.007 0.189-0.021s0.066-0.041 0.080-0.080c0.017-0.042 0.024-0.105 0.021-0.189v-1.95c-0.006-0.084-0.017-0.146-0.034-0.185-0.014-0.039-0.041-0.066-0.080-0.080-0.039-0.017-0.098-0.025-0.176-0.025-0.006 0-0.008-0.008-0.008-0.025s0.003-0.025 0.008-0.025l0.214 0.004c0.123 0.006 0.224 0.008 0.303 0.008 0.092 0 0.185-0.004 0.277-0.013 0.118-0.006 0.204-0.008 0.26-0.008 0.294 0 0.555 0.055 0.781 0.164 0.227 0.107 0.403 0.257 0.529 0.451s0.189 0.415 0.189 0.665c0 0.269-0.067 0.509-0.202 0.72-0.132 0.208-0.307 0.369-0.525 0.484s-0.454 0.173-0.706 0.173zM15.766 2.573c0.196 0 0.367-0.046 0.513-0.139 0.146-0.095 0.258-0.233 0.336-0.413 0.081-0.18 0.122-0.396 0.122-0.648 0-0.216-0.035-0.421-0.105-0.615-0.070-0.197-0.182-0.358-0.336-0.484-0.151-0.126-0.344-0.189-0.58-0.189-0.112 0-0.188 0.021-0.227 0.063-0.039 0.039-0.059 0.109-0.059 0.211v1.895c0.003 0.115 0.027 0.198 0.071 0.248 0.048 0.048 0.136 0.072 0.265 0.072z"></path>
<path fill="#dcca87" style="fill: var(--color3, #dcca87)" d="M20.843 2.819c0.007-0.004 0.014-0.005 0.023-0.002s0.015 0.007 0.022 0.015c0.007 0.005 0.009 0.009 0.006 0.010-0.078 0.167-0.148 0.354-0.208 0.562-0.006 0.022-0.015 0.037-0.026 0.045-0.010 0.006-0.028 0.005-0.052-0.002l-1.838-0.541c-0.011-0.003-0.014-0.013-0.009-0.029s0.011-0.023 0.019-0.021c0.081 0.024 0.14 0.034 0.179 0.031 0.042-0.002 0.073-0.021 0.095-0.055 0.024-0.034 0.049-0.092 0.073-0.176l0.548-1.871c0.024-0.081 0.034-0.142 0.032-0.184s-0.020-0.075-0.054-0.099c-0.033-0.027-0.087-0.052-0.162-0.074-0.008-0.002-0.011-0.012-0.009-0.029 0.005-0.016 0.010-0.023 0.015-0.022l1.737 0.511c0.021 0.006 0.029 0.022 0.022 0.046l-0.148 0.536c-0.002 0.008-0.012 0.010-0.028 0.005-0.013-0.004-0.021-0.009-0.022-0.015-0.002-0.164-0.050-0.307-0.146-0.429-0.092-0.124-0.22-0.21-0.384-0.258l-0.077-0.023c-0.083-0.024-0.146-0.036-0.187-0.033-0.038 0-0.067 0.015-0.087 0.044s-0.043 0.081-0.067 0.156l-0.241 0.824 0.504 0.148c0.137 0.040 0.245 0.046 0.324 0.016s0.134-0.098 0.165-0.206c0.003-0.011 0.014-0.013 0.033-0.008s0.026 0.015 0.022 0.028l-0.069 0.221c-0.012 0.032-0.027 0.077-0.044 0.136-0.025 0.086-0.043 0.151-0.053 0.195l-0.060 0.219c-0.004 0.013-0.014 0.018-0.030 0.013-0.008-0.002-0.016-0.006-0.023-0.011-0.004-0.007-0.005-0.013-0.003-0.019 0.034-0.116 0.023-0.214-0.032-0.295-0.052-0.083-0.142-0.143-0.271-0.181l-0.496-0.146-0.267 0.913c-0.032 0.108-0.036 0.183-0.013 0.224 0.025 0.043 0.092 0.080 0.199 0.111l0.113 0.033c0.175 0.051 0.349 0.049 0.523-0.008 0.175-0.060 0.326-0.163 0.454-0.31z"></path>
<path fill="#dcca87" style="fill: var(--color3, #dcca87)" d="M22.427 4.292c-0.005-0.003-0.003-0.012 0.006-0.026s0.016-0.020 0.021-0.017c0.073 0.047 0.13 0.075 0.17 0.085s0.076 0.001 0.107-0.026c0.033-0.025 0.073-0.075 0.12-0.148l1.052-1.64c0.046-0.071 0.073-0.127 0.082-0.167s0.001-0.078-0.024-0.111c-0.024-0.035-0.069-0.074-0.135-0.117-0.007-0.005-0.006-0.014 0.003-0.028s0.017-0.019 0.024-0.014l0.167 0.113c0.101 0.071 0.183 0.128 0.246 0.169s0.151 0.094 0.263 0.159l0.183 0.113c0.005 0.003 0.002 0.012-0.007 0.026s-0.016 0.020-0.021 0.017c-0.073-0.047-0.13-0.074-0.172-0.081-0.038-0.008-0.074 0.001-0.107 0.026-0.031 0.027-0.071 0.076-0.12 0.148l-1.040 1.622c-0.059 0.092-0.085 0.162-0.079 0.209 0.008 0.045 0.048 0.091 0.121 0.138l0.099 0.064c0.191 0.123 0.377 0.183 0.559 0.18 0.186-0.004 0.376-0.072 0.57-0.204 0.008-0.002 0.015-0 0.022 0.004s0.013 0.011 0.017 0.021c0.005 0.007 0.007 0.013 0.004 0.017-0.143 0.181-0.268 0.356-0.376 0.524-0.023 0.035-0.052 0.042-0.087 0.019l-1.668-1.074z"></path>
<path fill="#dcca87" style="fill: var(--color3, #dcca87)" d="M25.745 6.93c-0.004-0.004 0.001-0.012 0.014-0.023s0.021-0.014 0.025-0.010c0.057 0.066 0.102 0.108 0.137 0.126 0.036 0.021 0.074 0.023 0.113 0.008s0.091-0.051 0.157-0.108l1.47-1.277c0.061-0.053 0.101-0.099 0.12-0.138 0.023-0.038 0.026-0.077 0.011-0.116-0.013-0.041-0.046-0.092-0.099-0.153-0.004-0.004-0-0.013 0.011-0.026 0.013-0.011 0.022-0.013 0.027-0.007l0.135 0.162c0.076 0.097 0.139 0.174 0.189 0.231 0.055 0.064 0.127 0.142 0.215 0.236l0.138 0.153c0.004 0.004-0.001 0.012-0.014 0.023s-0.021 0.014-0.025 0.010c-0.055-0.064-0.102-0.105-0.14-0.123s-0.077-0.020-0.116-0.005c-0.037 0.017-0.089 0.053-0.157 0.108l-1.464 1.271c-0.063 0.055-0.105 0.101-0.126 0.137-0.019 0.038-0.021 0.078-0.009 0.119 0.015 0.039 0.049 0.089 0.102 0.151 0.004 0.004-0.001 0.012-0.013 0.023s-0.021 0.014-0.025 0.010c-0.057-0.066-0.102-0.12-0.135-0.162l-0.197-0.235-0.199-0.223c-0.037-0.038-0.086-0.093-0.146-0.163z"></path>
<path fill="#dcca87" style="fill: var(--color3, #dcca87)" d="M28.125 10.681c-0.129-0.283-0.187-0.555-0.172-0.814 0.015-0.257 0.094-0.484 0.235-0.681 0.144-0.198 0.335-0.352 0.575-0.462 0.232-0.106 0.467-0.14 0.707-0.101 0.242 0.037 0.462 0.139 0.66 0.304 0.201 0.164 0.361 0.376 0.48 0.637 0.055 0.12 0.099 0.248 0.133 0.383 0.037 0.134 0.056 0.244 0.058 0.33-0.001 0.025-0.005 0.043-0.013 0.052s-0.025 0.022-0.052 0.038l-0.487 0.26c-0.010 0.005-0.020 0.001-0.028-0.010s-0.010-0.022-0.005-0.030c0.153-0.178 0.25-0.364 0.29-0.559 0.043-0.196 0.021-0.389-0.066-0.581-0.113-0.248-0.289-0.4-0.527-0.458-0.236-0.059-0.504-0.019-0.805 0.118-0.262 0.12-0.473 0.272-0.633 0.456s-0.258 0.38-0.295 0.589c-0.036 0.211-0.008 0.417 0.084 0.619 0.042 0.092 0.087 0.156 0.134 0.193 0.050 0.036 0.11 0.048 0.179 0.038 0.073-0.009 0.169-0.040 0.289-0.095 0.125-0.057 0.21-0.11 0.256-0.159s0.063-0.108 0.053-0.177c-0.010-0.069-0.046-0.172-0.108-0.307-0.007-0.015-0-0.028 0.020-0.037 0.008-0.004 0.015-0.005 0.021-0.005 0.010 0.002 0.016 0.005 0.019 0.010 0.084 0.218 0.158 0.397 0.222 0.537 0.061 0.133 0.127 0.269 0.2 0.408 0.005 0.010-0.002 0.021-0.018 0.031s-0.027 0.011-0.032 0.001c-0.016-0.042-0.038-0.063-0.065-0.063s-0.082 0.019-0.164 0.056l-0.26 0.119c-0.115 0.053-0.193 0.093-0.235 0.122s-0.073 0.047-0.090 0.055c-0.015 0.007-0.027 0.009-0.034 0.006-0.006-0-0.015-0.007-0.027-0.020-0.22-0.294-0.386-0.563-0.496-0.805z"></path>
<path fill="#dcca87" style="fill: var(--color3, #dcca87)" d="M29.402 15.529c0.001 0.006-0.007 0.010-0.024 0.012s-0.025 0.001-0.026-0.005c-0.011-0.078-0.019-0.142-0.023-0.192l-0.041-0.313-0.047-0.3c-0.010-0.052-0.022-0.124-0.035-0.216-0.001-0.006 0.007-0.011 0.023-0.016 0.017-0.002 0.026 0.001 0.027 0.009 0.012 0.086 0.028 0.146 0.047 0.18 0.020 0.037 0.049 0.058 0.090 0.064s0.103 0.002 0.189-0.010l0.956-0.138-0.172-1.2-0.956 0.138c-0.083 0.012-0.143 0.028-0.18 0.047-0.037 0.022-0.060 0.054-0.071 0.095-0.008 0.041-0.007 0.103 0.005 0.186 0.001 0.008-0.007 0.014-0.023 0.016s-0.025-0.001-0.027-0.009c-0.013-0.092-0.022-0.163-0.026-0.213l-0.040-0.309-0.045-0.287c-0.010-0.052-0.022-0.122-0.034-0.208-0.001-0.008 0.006-0.014 0.023-0.016s0.026 0.001 0.027 0.009c0.012 0.083 0.028 0.142 0.046 0.176 0.020 0.037 0.050 0.058 0.090 0.064 0.041 0.008 0.104 0.006 0.19-0.006l1.925-0.277c0.117-0.014 0.191-0.042 0.221-0.083 0.034-0.042 0.042-0.12 0.026-0.233-0.001-0.008 0.006-0.014 0.023-0.016s0.026 0.001 0.027 0.009l0.025 0.201c0.012 0.123 0.023 0.222 0.034 0.297s0.028 0.176 0.052 0.303l0.035 0.212c0.001 0.006-0.007 0.010-0.024 0.012s-0.025 0.001-0.026-0.005c-0.012-0.083-0.029-0.143-0.051-0.18s-0.055-0.059-0.099-0.067c-0.040-0.006-0.102-0.004-0.186 0.006l-0.844 0.122 0.172 1.196 0.844-0.122c0.119-0.017 0.195-0.047 0.229-0.088 0.034-0.039 0.043-0.115 0.027-0.229-0.001-0.006 0.007-0.011 0.023-0.016 0.016-0.002 0.025 0.001 0.027 0.009l0.025 0.205c0.012 0.123 0.024 0.223 0.035 0.301 0.011 0.075 0.028 0.173 0.051 0.295l0.035 0.212c0.001 0.008-0.006 0.014-0.023 0.016s-0.026-0.001-0.027-0.009c-0.012-0.083-0.029-0.143-0.051-0.18-0.019-0.034-0.049-0.055-0.090-0.064s-0.103-0.009-0.187-0.003l-1.925 0.277c-0.080 0.012-0.14 0.029-0.179 0.051-0.036 0.025-0.059 0.060-0.070 0.104-0.008 0.044-0.006 0.106 0.006 0.186z"></path>
<path fill="#dcca87" style="fill: var(--color3, #dcca87)" d="M29.231 17.307c0.001-0.008 0.010-0.011 0.027-0.009s0.025 0.006 0.024 0.012c-0.017 0.117-0.022 0.202-0.016 0.257 0.006 0.058 0.027 0.099 0.063 0.124 0.039 0.025 0.1 0.044 0.183 0.056l1.925 0.277c0.097 0.017 0.162 0.013 0.197-0.010 0.037-0.023 0.062-0.073 0.073-0.151l0.008-0.054c0.014-0.094-0.003-0.192-0.052-0.292-0.045-0.1-0.113-0.189-0.203-0.268-0.088-0.078-0.189-0.132-0.304-0.163-0.005-0.001-0.007-0.008-0.005-0.022 0.001-0.008 0.004-0.016 0.008-0.024 0.006-0.005 0.011-0.006 0.013-0.002 0.103 0.029 0.376 0.090 0.818 0.182 0.008 0.001 0.012 0.009 0.010 0.023-0.001 0.008-0.004 0.015-0.007 0.020-0.004 0.008-0.009 0.012-0.014 0.011-0.058-0.008-0.096 0.050-0.114 0.175-0.041 0.224-0.085 0.505-0.134 0.844-0.022 0.153-0.044 0.324-0.065 0.514l-0.038 0.292c-0.013 0.092-0.016 0.159-0.008 0.203s0.032 0.074 0.072 0.091c0.008 0.007 0.009 0.017 0.004 0.030-0.002 0.017-0.009 0.023-0.020 0.018-0.121-0.026-0.274-0.056-0.458-0.091-0.182-0.035-0.305-0.055-0.369-0.062-0.008-0.001-0.011-0.010-0.009-0.027 0.003-0.022 0.010-0.033 0.021-0.031 0.114 0.016 0.223 0.005 0.327-0.034 0.104-0.036 0.192-0.096 0.263-0.179 0.071-0.081 0.114-0.174 0.129-0.279l0.008-0.054c0.008-0.056 0.007-0.097-0.003-0.124-0.011-0.024-0.032-0.041-0.065-0.052-0.030-0.010-0.082-0.022-0.156-0.035l-1.918-0.272c-0.086-0.012-0.149-0.013-0.191-0.002-0.042 0.014-0.073 0.046-0.094 0.097s-0.041 0.136-0.058 0.255c-0.001 0.008-0.010 0.011-0.027 0.009s-0.024-0.008-0.023-0.016c0.015-0.103 0.028-0.183 0.039-0.241l0.059-0.379 0.047-0.359c0.006-0.062 0.017-0.148 0.033-0.259z"></path>
<path fill="#dcca87" style="fill: var(--color3, #dcca87)" d="M26.303 24.433c0.004-0.004 0.012-0.001 0.025 0.010s0.017 0.019 0.014 0.023c-0.057 0.066-0.092 0.117-0.105 0.154-0.015 0.039-0.012 0.076 0.008 0.113s0.064 0.083 0.129 0.14l1.47 1.277c0.061 0.053 0.112 0.086 0.153 0.099 0.041 0.017 0.080 0.015 0.116-0.005 0.038-0.019 0.084-0.059 0.137-0.12 0.004-0.004 0.013-0.002 0.027 0.007 0.013 0.011 0.016 0.020 0.011 0.026l-0.141 0.157c-0.085 0.090-0.152 0.163-0.202 0.22-0.055 0.064-0.123 0.146-0.203 0.247l-0.132 0.159c-0.003 0.004-0.012 0.001-0.025-0.010s-0.017-0.019-0.014-0.023c0.055-0.064 0.089-0.116 0.102-0.157s0.009-0.079-0.011-0.116c-0.022-0.034-0.065-0.081-0.129-0.14l-1.464-1.271c-0.064-0.055-0.115-0.090-0.154-0.105-0.041-0.013-0.080-0.010-0.118 0.009-0.036 0.020-0.081 0.061-0.134 0.123-0.003 0.004-0.012 0.001-0.025-0.010s-0.017-0.019-0.013-0.023c0.057-0.066 0.104-0.118 0.141-0.156l0.204-0.229 0.192-0.229c0.033-0.042 0.079-0.098 0.14-0.168z"></path>
<path fill="#dcca87" style="fill: var(--color3, #dcca87)" d="M23.299 30.283c-0.007 0.005-0.015-0-0.024-0.014s-0.010-0.024-0.003-0.028c0.097-0.062 0.154-0.146 0.173-0.252 0.017-0.104-0.010-0.213-0.081-0.328l-1.168-1.83c-0.007-0.005-0.005-0.015 0.006-0.029 0.007-0.015 0.019-0.027 0.035-0.038 0.024-0.015 0.043-0.018 0.060-0.008l2.675 0.909-0.907-1.423c-0.070-0.115-0.156-0.186-0.258-0.215s-0.201-0.010-0.3 0.053c-0.009 0.006-0.019 0.002-0.028-0.012s-0.009-0.024 0-0.030c0.066-0.043 0.117-0.074 0.154-0.094l0.225-0.14 0.21-0.14c0.039-0.028 0.094-0.066 0.167-0.113 0.009-0.006 0.019-0.002 0.028 0.012s0.009 0.024-0.001 0.030c-0.099 0.064-0.155 0.147-0.17 0.249-0.016 0.104 0.011 0.213 0.081 0.328l0.994 1.557c0.117 0.031 0.212 0.045 0.286 0.041 0.071-0.003 0.135-0.022 0.192-0.059 0.005-0.003 0.012 0.003 0.021 0.017s0.011 0.023 0.006 0.026l-0.193 0.119c-0.039 0.022-0.091 0.053-0.154 0.094s-0.116 0.076-0.157 0.106c-0.043 0.031-0.072 0.051-0.086 0.060-0.019 0.012-0.036 0.017-0.052 0.013-0.018-0.002-0.042-0.011-0.073-0.028-0.055-0.024-0.109-0.045-0.16-0.062l-2.122-0.715 0.793 1.251c0.070 0.115 0.156 0.187 0.257 0.215 0.099 0.030 0.199 0.012 0.3-0.053 0.009-0.006 0.019-0.002 0.028 0.012s0.009 0.024-0.001 0.030l-0.14 0.085c-0.097 0.056-0.178 0.104-0.241 0.145-0.050 0.032-0.117 0.079-0.204 0.141l-0.171 0.115z"></path>
<path fill="#dcca87" style="fill: var(--color3, #dcca87)" d="M14.956 30.038c-0.006 0.005-0.013 0.008-0.021 0.008s-0.017-0.003-0.025-0.008c-0.008-0.003-0.011-0.006-0.008-0.009 0.028-0.182 0.042-0.382 0.042-0.598 0-0.022 0.004-0.039 0.013-0.050 0.008-0.009 0.025-0.013 0.050-0.013h1.916c0.011 0 0.017 0.009 0.017 0.025s-0.004 0.025-0.013 0.025c-0.084 0-0.144 0.007-0.181 0.021-0.039 0.014-0.064 0.041-0.076 0.080-0.014 0.039-0.021 0.102-0.021 0.189v1.95c0 0.084 0.007 0.146 0.021 0.185s0.041 0.066 0.080 0.080c0.039 0.017 0.098 0.025 0.176 0.025 0.008 0 0.014 0.009 0.017 0.025 0 0.017-0.003 0.025-0.008 0.025h-1.811c-0.022 0-0.034-0.013-0.034-0.038l-0.008-0.556c0-0.008 0.008-0.012 0.025-0.012 0.014 0 0.022 0.003 0.025 0.008 0.048 0.157 0.134 0.281 0.26 0.371 0.123 0.093 0.27 0.139 0.441 0.139h0.080c0.087 0 0.15-0.007 0.189-0.021 0.036-0.011 0.060-0.034 0.071-0.067s0.018-0.090 0.021-0.168v-0.859h-0.525c-0.143 0-0.248 0.025-0.315 0.076s-0.101 0.132-0.101 0.244c0 0.011-0.010 0.017-0.029 0.017s-0.029-0.007-0.029-0.021l0.004-0.231c0.003-0.034 0.004-0.082 0.004-0.143 0-0.090-0.001-0.157-0.004-0.202l-0.004-0.227c0-0.014 0.008-0.021 0.025-0.021 0.008 0 0.017 0.002 0.025 0.004 0.006 0.006 0.008 0.011 0.008 0.017 0 0.121 0.038 0.212 0.113 0.274 0.073 0.064 0.176 0.097 0.311 0.097h0.517v-0.952c0-0.112-0.017-0.185-0.050-0.219-0.036-0.034-0.111-0.050-0.223-0.050h-0.118c-0.182 0-0.349 0.052-0.5 0.156-0.151 0.107-0.267 0.249-0.349 0.425z"></path>
<path fill="#dcca87" style="fill: var(--color3, #dcca87)" d="M10.027 30.933c-0.013-0.004-0.018-0.014-0.013-0.030s0.014-0.022 0.027-0.018c0.099 0.029 0.195 0.027 0.287-0.008 0.089-0.035 0.192-0.131 0.307-0.287l1.364-1.815c0.012-0.011 0.034-0.012 0.066-0.002 0.013 0.004 0.026 0.011 0.038 0.020 0.013 0.007 0.020 0.013 0.021 0.019l0.363 2.481c0.017 0.122 0.042 0.21 0.076 0.264 0.033 0.057 0.087 0.096 0.162 0.118 0.008 0.002 0.010 0.012 0.005 0.028s-0.010 0.023-0.015 0.022l-0.212-0.067c-0.095-0.034-0.166-0.057-0.211-0.071-0.102-0.030-0.218-0.061-0.349-0.094l-0.199-0.054c-0.013-0.004-0.018-0.014-0.013-0.030s0.014-0.022 0.027-0.018c0.15 0.044 0.238 0.025 0.262-0.059 0.009-0.030 0.010-0.073 0.003-0.131l-0.269-1.892-0.982 1.335c-0.039 0.053-0.065 0.101-0.077 0.144-0.024 0.084-0.012 0.157 0.036 0.221 0.048 0.067 0.122 0.115 0.225 0.145 0.011 0.003 0.014 0.013 0.009 0.029s-0.012 0.023-0.023 0.020l-0.204-0.065c-0.117-0.040-0.223-0.075-0.32-0.103-0.054-0.016-0.122-0.033-0.204-0.051l-0.187-0.051z"></path>
<path fill="#dcca87" style="fill: var(--color3, #dcca87)" d="M7.543 27.273c-0.008 0.002-0.015 0-0.022-0.004s-0.013-0.011-0.017-0.021c-0.006-0.007-0.006-0.011-0.003-0.012 0.122-0.138 0.241-0.298 0.358-0.48 0.012-0.019 0.025-0.031 0.038-0.036 0.012-0.002 0.028 0.003 0.049 0.017l1.612 1.038c0.009 0.006 0.010 0.016 0.001 0.030s-0.017 0.019-0.024 0.014c-0.071-0.046-0.125-0.072-0.163-0.080-0.041-0.009-0.076-0.001-0.107 0.026-0.033 0.025-0.073 0.075-0.12 0.148l-1.052 1.64c-0.045 0.071-0.073 0.127-0.082 0.167s-0.001 0.078 0.024 0.111c0.024 0.035 0.069 0.074 0.135 0.117 0.007 0.005 0.007 0.015 0.001 0.030-0.009 0.014-0.016 0.020-0.021 0.017l-1.523-0.981c-0.019-0.012-0.021-0.029-0.008-0.050l0.293-0.472c0.005-0.007 0.014-0.006 0.028 0.003 0.012 0.008 0.017 0.015 0.017 0.021-0.045 0.158-0.038 0.309 0.019 0.453 0.054 0.145 0.152 0.263 0.296 0.356l0.067 0.043c0.073 0.047 0.13 0.075 0.17 0.085 0.037 0.010 0.069 0.004 0.096-0.018s0.064-0.066 0.109-0.13l0.463-0.722-0.442-0.285c-0.12-0.077-0.222-0.113-0.306-0.107s-0.156 0.056-0.217 0.151c-0.006 0.009-0.017 0.009-0.034-0.002s-0.021-0.022-0.013-0.034l0.128-0.193c0.021-0.027 0.047-0.066 0.081-0.118 0.048-0.076 0.084-0.133 0.106-0.172l0.119-0.194c0.008-0.012 0.018-0.013 0.033-0.004 0.007 0.005 0.013 0.010 0.019 0.017 0.002 0.008 0.001 0.014-0.002 0.019-0.065 0.102-0.083 0.199-0.052 0.292 0.026 0.094 0.096 0.177 0.209 0.25l0.435 0.28 0.513-0.8c0.061-0.094 0.086-0.165 0.076-0.212-0.012-0.048-0.066-0.103-0.16-0.163l-0.099-0.064c-0.153-0.099-0.321-0.145-0.505-0.14-0.185 0.008-0.359 0.064-0.523 0.169z"></path>
<path fill="#dcca87" style="fill: var(--color3, #dcca87)" d="M4.847 23.651c-0.005-0.006-0.002-0.015 0.011-0.026 0.011-0.013 0.020-0.016 0.027-0.007l0.451 0.522c0.044 0.051 0.036 0.213-0.023 0.488-0.063 0.274-0.189 0.649-0.378 1.125 0.066 0.046 0.13 0.106 0.193 0.178 0.009 0.011 0.019 0.026 0.029 0.047l0.752-0.654c0.063-0.051 0.106-0.096 0.129-0.134 0.019-0.039 0.021-0.078 0.008-0.119-0.017-0.041-0.053-0.093-0.108-0.157-0.007-0.009-0.005-0.018 0.008-0.029 0.011-0.013 0.020-0.016 0.027-0.007 0.062 0.072 0.109 0.128 0.14 0.168l0.2 0.238 0.21 0.236c0.039 0.041 0.089 0.097 0.152 0.169 0.007 0.009 0.006 0.019-0.005 0.032-0.013 0.011-0.023 0.012-0.030 0.004-0.061-0.070-0.111-0.117-0.151-0.142-0.042-0.023-0.082-0.027-0.121-0.012-0.043 0.015-0.096 0.048-0.159 0.099l-1.47 1.277c-0.064 0.055-0.105 0.102-0.123 0.14-0.020 0.036-0.022 0.075-0.005 0.116 0.015 0.043 0.051 0.097 0.107 0.163 0.007 0.009 0.005 0.018-0.008 0.029s-0.023 0.012-0.030 0.004l-0.143-0.171c-0.076-0.097-0.14-0.175-0.192-0.235-0.062-0.072-0.134-0.147-0.216-0.225-0.063-0.064-0.104-0.107-0.122-0.128-0.185-0.214-0.289-0.405-0.311-0.572-0.024-0.169 0.027-0.308 0.152-0.416 0.091-0.079 0.205-0.125 0.343-0.137 0.136-0.014 0.276 0.004 0.419 0.054 0.13-0.403 0.224-0.729 0.281-0.98 0.054-0.251 0.078-0.45 0.072-0.598-0.009-0.148-0.049-0.262-0.119-0.343zM5.069 26.054c-0.016-0.031-0.039-0.064-0.070-0.101-0.121-0.14-0.237-0.212-0.348-0.216-0.113-0.006-0.241 0.053-0.385 0.178-0.15 0.13-0.235 0.256-0.253 0.376-0.022 0.12 0.003 0.222 0.076 0.307 0.050 0.057 0.088 0.093 0.114 0.107 0.025 0.016 0.054 0.016 0.089 0 0.031-0.016 0.082-0.053 0.154-0.111l0.622-0.541z"></path>
<path fill="#dcca87" style="fill: var(--color3, #dcca87)" d="M0.925 21.541c-0.006-0.013-0.001-0.023 0.014-0.030s0.026-0.004 0.032 0.009c0.041 0.089 0.114 0.159 0.22 0.209 0.102 0.049 0.243 0.080 0.422 0.094l0.901 0.051 0.89-0.408c0.079-0.036 0.133-0.069 0.163-0.098 0.029-0.032 0.040-0.071 0.034-0.117s-0.030-0.116-0.072-0.208c-0.005-0.010 0.001-0.019 0.016-0.026s0.025-0.005 0.030 0.005c0.041 0.089 0.071 0.159 0.090 0.209l0.134 0.304 0.149 0.316c0.026 0.050 0.058 0.118 0.098 0.205 0.005 0.010-0.001 0.019-0.016 0.026s-0.025 0.005-0.030-0.005c-0.042-0.092-0.079-0.157-0.112-0.194-0.035-0.036-0.074-0.054-0.117-0.053-0.044-0.002-0.103 0.016-0.179 0.054l-0.835 0.387-0.647 1.032c-0.066 0.104-0.108 0.195-0.126 0.271-0.019 0.073-0.016 0.138 0.010 0.194 0.005 0.010-0.001 0.019-0.016 0.026-0.014 0.010-0.023 0.011-0.026 0.003l-0.087-0.201c-0.039-0.099-0.069-0.172-0.090-0.218-0.029-0.064-0.075-0.158-0.139-0.284l-0.093-0.194c-0.004-0.008-0-0.014 0.010-0.018 0.008-0.003 0.016-0.004 0.026-0.003 0.006 0 0.011 0.003 0.013 0.008 0.030 0.066 0.057 0.113 0.082 0.139 0.023 0.023 0.046 0.030 0.069 0.019s0.046-0.037 0.070-0.078l0.617-0.977-0.863-0.040c-0.061 0-0.113 0.010-0.153 0.029-0.059 0.027-0.096 0.069-0.113 0.126-0.018 0.055-0.010 0.119 0.023 0.193 0.005 0.010-0.001 0.019-0.016 0.026s-0.025 0.007-0.028-0.001l-0.090-0.209c-0.053-0.13-0.095-0.229-0.127-0.298-0.020-0.043-0.045-0.092-0.076-0.146l-0.063-0.128z"></path>
<path fill="#dcca87" style="fill: var(--color3, #dcca87)" d="M1.334 13.612c0.062-0.232 0.166-0.41 0.314-0.533 0.145-0.124 0.312-0.172 0.5-0.145 0.144 0.021 0.268 0.083 0.372 0.186s0.18 0.234 0.228 0.394c0.045 0.16 0.054 0.332 0.027 0.519-0.011 0.078-0.028 0.166-0.051 0.265-0.008 0.039-0.018 0.087-0.029 0.145-0.011 0.055-0.021 0.117-0.031 0.187l-0.039 0.301c-0.005 0.053-0.014 0.127-0.028 0.222-0.001 0.006-0.010 0.007-0.026 0.005s-0.025-0.006-0.024-0.012c0.012-0.081 0.013-0.141 0.005-0.182-0.011-0.044-0.034-0.077-0.071-0.1s-0.096-0.039-0.179-0.051l-1.925-0.277c-0.080-0.012-0.141-0.012-0.182-0.001-0.044 0.008-0.075 0.032-0.095 0.071-0.022 0.037-0.039 0.095-0.051 0.176-0.001 0.006-0.010 0.007-0.026 0.005s-0.025-0.006-0.024-0.012l0.036-0.22c0.023-0.121 0.040-0.22 0.051-0.295 0.011-0.078 0.019-0.159 0.022-0.244 0.001-0.028 0.004-0.070 0.010-0.126s0.011-0.105 0.017-0.146c0.037-0.261 0.112-0.456 0.224-0.585 0.112-0.131 0.256-0.184 0.43-0.159 0.133 0.019 0.247 0.081 0.343 0.185s0.163 0.247 0.202 0.429zM0.209 13.816c-0.012 0.081-0 0.139 0.034 0.175s0.104 0.062 0.21 0.077l0.79 0.114 0.029-0.17c0.022-0.15-0.016-0.273-0.113-0.369-0.099-0.099-0.232-0.161-0.398-0.185-0.158-0.023-0.284-0.003-0.378 0.060-0.096 0.060-0.154 0.159-0.174 0.298zM2.674 14.090c0.028-0.197 0.001-0.349-0.083-0.454s-0.221-0.172-0.413-0.2c-0.213-0.031-0.39-0.002-0.53 0.085s-0.226 0.241-0.257 0.461c-0.012 0.081-0.019 0.153-0.023 0.218l1.002 0.144c0.097 0.014 0.168 0.006 0.212-0.025s0.075-0.107 0.092-0.229z"></path>
<path fill="#dcca87" style="fill: var(--color3, #dcca87)" d="M3.641 10.841c-0.002 0.005-0.011 0.004-0.026-0.003s-0.022-0.013-0.019-0.018c0.036-0.079 0.055-0.138 0.058-0.177 0.004-0.042-0.010-0.077-0.039-0.106s-0.084-0.062-0.163-0.098l-1.769-0.81c-0.074-0.034-0.132-0.051-0.175-0.052-0.044-0.005-0.081 0.008-0.11 0.038-0.032 0.029-0.064 0.080-0.098 0.154-0.002 0.005-0.012 0.005-0.028 0.001-0.015-0.007-0.021-0.014-0.018-0.022l0.091-0.19c0.056-0.11 0.1-0.2 0.132-0.268 0.035-0.077 0.077-0.175 0.125-0.295l0.082-0.189c0.002-0.005 0.011-0.004 0.026 0.003s0.022 0.013 0.019 0.018c-0.035 0.077-0.053 0.136-0.054 0.179s0.013 0.079 0.043 0.108c0.031 0.027 0.085 0.059 0.163 0.098l1.762 0.806c0.076 0.035 0.135 0.054 0.177 0.058 0.043 0.001 0.080-0.013 0.111-0.042 0.029-0.030 0.060-0.082 0.094-0.156 0.002-0.005 0.011-0.004 0.026 0.003s0.022 0.013 0.019 0.018c-0.036 0.079-0.066 0.142-0.091 0.19l-0.131 0.278-0.12 0.274c-0.020 0.050-0.049 0.117-0.087 0.201z"></path>
<path fill="#dcca87" style="fill: var(--color3, #dcca87)" d="M5.474 7.71c-0.005 0.006-0.015 0.004-0.027-0.007s-0.017-0.019-0.014-0.023c0.077-0.089 0.128-0.158 0.152-0.208 0.026-0.052 0.031-0.098 0.014-0.138-0.019-0.042-0.060-0.091-0.124-0.146l-1.47-1.277c-0.072-0.066-0.129-0.099-0.171-0.098-0.044-0.001-0.091 0.028-0.143 0.088l-0.036 0.041c-0.062 0.072-0.1 0.163-0.114 0.274-0.016 0.109-0.007 0.22 0.027 0.335 0.032 0.113 0.088 0.214 0.167 0.301 0.004 0.004 0.002 0.011-0.007 0.021-0.006 0.006-0.012 0.012-0.020 0.016-0.008 0.001-0.012-0.001-0.012-0.005-0.071-0.080-0.268-0.279-0.591-0.596-0.006-0.006-0.005-0.014 0.004-0.024 0.006-0.006 0.011-0.011 0.017-0.013 0.008-0.005 0.014-0.005 0.018-0.001 0.044 0.039 0.108 0.010 0.19-0.085 0.155-0.166 0.344-0.379 0.568-0.638 0.101-0.117 0.212-0.249 0.332-0.397l0.189-0.226c0.061-0.070 0.099-0.126 0.116-0.167s0.013-0.080-0.011-0.116c-0.003-0.010 0.002-0.019 0.013-0.028 0.011-0.013 0.020-0.014 0.026-0.005 0.088 0.087 0.2 0.196 0.336 0.325 0.134 0.128 0.227 0.212 0.277 0.252 0.006 0.005 0.004 0.015-0.007 0.027-0.015 0.017-0.026 0.022-0.035 0.014-0.087-0.075-0.185-0.125-0.294-0.149-0.107-0.026-0.213-0.024-0.318 0.008-0.103 0.029-0.19 0.084-0.259 0.165l-0.036 0.041c-0.037 0.042-0.058 0.078-0.064 0.106-0.004 0.026 0.005 0.052 0.026 0.079 0.020 0.024 0.057 0.063 0.112 0.114l1.466 1.268c0.066 0.057 0.119 0.092 0.159 0.105 0.042 0.011 0.086 0.001 0.132-0.030s0.108-0.092 0.186-0.184c0.005-0.006 0.015-0.004 0.027 0.007s0.016 0.020 0.011 0.026c-0.068 0.079-0.122 0.139-0.163 0.182l-0.254 0.287-0.233 0.276c-0.038 0.048-0.094 0.115-0.167 0.2z"></path>
<path fill="#dcca87" style="fill: var(--color3, #dcca87)" d="M9.211 3.661c0.002-0.008 0.006-0.014 0.013-0.018s0.016-0.007 0.026-0.007c0.009-0.002 0.012-0.001 0.012 0.003 0.075 0.169 0.171 0.344 0.287 0.526 0.012 0.019 0.018 0.035 0.017 0.049-0.003 0.012-0.014 0.024-0.036 0.038l-1.612 1.038c-0.009 0.006-0.019 0.002-0.028-0.012s-0.010-0.024-0.003-0.028c0.071-0.046 0.118-0.084 0.141-0.116 0.025-0.033 0.032-0.069 0.020-0.108-0.009-0.041-0.038-0.098-0.085-0.171l-1.052-1.64c-0.045-0.071-0.085-0.119-0.118-0.144s-0.070-0.034-0.11-0.024c-0.042 0.007-0.096 0.032-0.162 0.074-0.007 0.005-0.016 0.001-0.028-0.012-0.009-0.014-0.011-0.023-0.007-0.026l1.523-0.981c0.019-0.012 0.035-0.008 0.049 0.014l0.307 0.463c0.005 0.007-0 0.015-0.014 0.024-0.012 0.008-0.020 0.010-0.026 0.007-0.125-0.106-0.264-0.163-0.419-0.171-0.154-0.011-0.302 0.030-0.446 0.122l-0.067 0.043c-0.073 0.047-0.122 0.087-0.148 0.12-0.025 0.029-0.032 0.061-0.024 0.095s0.033 0.085 0.073 0.153l0.463 0.723 0.442-0.285c0.12-0.077 0.195-0.156 0.224-0.235s0.014-0.166-0.047-0.26c-0.006-0.009-0.001-0.019 0.016-0.030s0.028-0.010 0.036 0.002l0.121 0.197c0.016 0.030 0.040 0.071 0.074 0.123 0.048 0.076 0.086 0.131 0.113 0.168l0.126 0.189c0.008 0.012 0.004 0.022-0.010 0.031-0.007 0.005-0.015 0.008-0.023 0.010-0.008-0.002-0.013-0.005-0.016-0.010-0.065-0.102-0.146-0.158-0.243-0.169-0.096-0.015-0.201 0.014-0.314 0.087l-0.435 0.28 0.513 0.801c0.061 0.094 0.114 0.147 0.161 0.157 0.049 0.009 0.12-0.017 0.215-0.078l0.099-0.064c0.153-0.099 0.265-0.233 0.337-0.402 0.070-0.172 0.091-0.354 0.064-0.547z"></path>
</symbol>
<symbol id="icon-navigation-border1" viewBox="0 0 0 32">
<path stroke-linejoin="miter" stroke-linecap="butt" stroke-miterlimit="4" stroke-width="0.1148" d="M0.077 32v-32"></path>
</symbol>
<symbol id="icon-navigation-border2" viewBox="0 0 0 32">
<path stroke-linejoin="miter" stroke-linecap="butt" stroke-miterlimit="4" stroke-width="0.1148" d="M0.077 32v-32"></path>
</symbol>

</defs>
</svg>
