<svg width="52" height="52" viewBox="0 0 52 52" fill="none" xmlns="http://www.w3.org/2000/svg">
<g id="u:instagram">
<path id="Vector" d="M37.57 11.8299C37.0558 11.8299 36.5531 11.9823 36.1255 12.268C35.6979 12.5537 35.3647 12.9598 35.1679 13.4349C34.9711 13.91 34.9196 14.4327 35.0199 14.9371C35.1203 15.4414 35.3679 15.9047 35.7315 16.2683C36.0951 16.632 36.5584 16.8796 37.0628 16.9799C37.5671 17.0802 38.0899 17.0287 38.565 16.8319C39.0401 16.6352 39.4461 16.3019 39.7318 15.8743C40.0175 15.4468 40.17 14.9441 40.17 14.4299C40.17 13.7403 39.8961 13.079 39.4085 12.5914C38.9209 12.1038 38.2595 11.8299 37.57 11.8299ZM47.5367 17.0732C47.4945 15.2755 47.1578 13.4969 46.54 11.8082C45.9891 10.3633 45.1316 9.05496 44.0267 7.97319C42.9538 6.86261 41.6424 6.01057 40.1917 5.48152C38.5074 4.84487 36.7268 4.50048 34.9267 4.46319C32.63 4.33319 31.8933 4.33319 26 4.33319C20.1066 4.33319 19.37 4.33319 17.0733 4.46319C15.2731 4.50048 13.4926 4.84487 11.8083 5.48152C10.3603 6.01593 9.05 6.86724 7.97331 7.97319C6.86274 9.04608 6.0107 10.3575 5.48165 11.8082C4.84499 13.4924 4.5006 15.273 4.46331 17.0732C4.33331 19.3699 4.33331 20.1065 4.33331 25.9999C4.33331 31.8932 4.33331 32.6299 4.46331 34.9265C4.5006 36.7267 4.84499 38.5073 5.48165 40.1915C6.0107 41.6422 6.86274 42.9536 7.97331 44.0265C9.05 45.1325 10.3603 45.9838 11.8083 46.5182C13.4926 47.1548 15.2731 47.4992 17.0733 47.5365C19.37 47.6665 20.1066 47.6665 26 47.6665C31.8933 47.6665 32.63 47.6665 34.9267 47.5365C36.7268 47.4992 38.5074 47.1548 40.1917 46.5182C41.6424 45.9891 42.9538 45.1371 44.0267 44.0265C45.1365 42.9488 45.9947 41.6393 46.54 40.1915C47.1578 38.5028 47.4945 36.7242 47.5367 34.9265C47.5367 32.6299 47.6667 31.8932 47.6667 25.9999C47.6667 20.1065 47.6667 19.3699 47.5367 17.0732ZM43.6367 34.6665C43.6209 36.0419 43.3718 37.4045 42.9 38.6965C42.554 39.6394 41.9984 40.4914 41.275 41.1882C40.5722 41.9043 39.722 42.4588 38.7833 42.8132C37.4913 43.285 36.1287 43.5341 34.7533 43.5499C32.5867 43.6582 31.785 43.6799 26.0866 43.6799C20.3883 43.6799 19.5866 43.6799 17.42 43.5499C15.9919 43.5766 14.5699 43.3567 13.2166 42.8999C12.3192 42.5274 11.5079 41.9742 10.8333 41.2749C10.1142 40.5788 9.56547 39.7261 9.22998 38.7832C8.701 37.4727 8.40761 36.0791 8.36331 34.6665C8.36331 32.4999 8.23331 31.6982 8.23331 25.9999C8.23331 20.3015 8.23331 19.4999 8.36331 17.3332C8.37303 15.9271 8.62971 14.5337 9.12165 13.2165C9.50308 12.302 10.0886 11.4868 10.8333 10.8332C11.4916 10.0882 12.3051 9.49657 13.2166 9.09986C14.5373 8.62329 15.9293 8.3742 17.3333 8.36319C19.5 8.36319 20.3016 8.23319 26 8.23319C31.6983 8.23319 32.5 8.23319 34.6667 8.36319C36.042 8.37897 37.4047 8.62806 38.6967 9.09986C39.6813 9.46527 40.565 10.0594 41.275 10.8332C41.985 11.4987 42.5398 12.3124 42.9 13.2165C43.3815 14.5359 43.6308 15.9287 43.6367 17.3332C43.745 19.4999 43.7667 20.3015 43.7667 25.9999C43.7667 31.6982 43.745 32.4999 43.6367 34.6665ZM26 14.8849C23.8026 14.8891 21.6557 15.5447 19.8307 16.7686C18.0057 17.9925 16.5845 19.7299 15.7465 21.7613C14.9086 23.7927 14.6916 26.0269 15.1229 28.1815C15.5542 30.3362 16.6145 32.3147 18.1698 33.867C19.7251 35.4193 21.7057 36.4757 23.8612 36.9028C26.0167 37.33 28.2504 37.1086 30.2802 36.2667C32.3099 35.4248 34.0446 34.0001 35.2649 32.1728C36.4853 30.3454 37.1366 28.1973 37.1367 25.9999C37.1395 24.5376 36.8533 23.0892 36.2943 21.7379C35.7354 20.3867 34.9149 19.1593 33.8799 18.1263C32.8449 17.0933 31.6159 16.2752 30.2635 15.7189C28.9112 15.1626 27.4622 14.8791 26 14.8849ZM26 33.2149C24.573 33.2149 23.178 32.7917 21.9915 31.9989C20.805 31.2061 19.8803 30.0793 19.3342 28.7609C18.7881 27.4426 18.6452 25.9919 18.9236 24.5923C19.202 23.1927 19.8892 21.9071 20.8982 20.8981C21.9072 19.889 23.1928 19.2019 24.5924 18.9235C25.992 18.6451 27.4427 18.788 28.761 19.3341C30.0794 19.8802 31.2062 20.8049 31.999 21.9914C32.7918 23.1779 33.215 24.5729 33.215 25.9999C33.215 26.9473 33.0284 27.8856 32.6658 28.7609C32.3032 29.6363 31.7717 30.4317 31.1018 31.1016C30.4318 31.7716 29.6364 32.3031 28.761 32.6656C27.8857 33.0282 26.9475 33.2149 26 33.2149Z" fill="white"/>
</g>
</svg>
